# MagicaVoxel @ Ephtracy

# group
o 

# material
mtllib Radio.mtl
usemtl palette

# normals
vn -1 0 0
vn 1 0 0
vn 0 0 1
vn 0 0 -1
vn 0 -1 0
vn 0 1 0

# texcoords
vt 0.716797 0.5
vt 0.982422 0.5
vt 0.990234 0.5
vt 0.994141 0.5

# verts
v -0.0999999 2.2 0.2
v -0.0999999 2.2 0.0999999
v -0.0999999 2.2 -0.1
v -0.0999999 2.3 0.2
v -0.0999999 2.3 0.0999999
v -0.0999999 2.4 0.2
v -0.0999999 2.4 0.0999999
v -0.0999999 2.5 0.2
v -0.0999999 2.5 0.0999999
v -0.0999999 2.7 0.2
v -0.0999999 2.7 0.0999999
v -0.0999999 2.7 -0.1
v 0.1 2.7 -5.96046e-08
v 0.1 2.7 -0.1
v 0.1 2.9 -5.96046e-08
v 0.1 2.9 -0.1
v 0.2 2.2 0.2
v 0.2 2.2 0.0999999
v 0.2 2.2 -0.1
v 0.2 2.3 0.2
v 0.2 2.3 0.0999999
v 0.2 2.4 0.2
v 0.2 2.4 0.0999999
v 0.2 2.5 0.2
v 0.2 2.5 0.0999999
v 0.2 2.7 0.2
v 0.2 2.7 0.0999999
v 0.2 2.7 -5.96046e-08
v 0.2 2.7 -0.1
v 0.2 2.9 -5.96046e-08
v 0.2 2.9 -0.1
v -0.0999999 2.2 0.2
v -0.0999999 2.3 0.2
v -0.0999999 2.4 0.2
v -0.0999999 2.5 0.2
v -0.0999999 2.7 0.2
v 7.45058e-08 2.2 0.2
v 7.45058e-08 2.3 0.2
v 7.45058e-08 2.4 0.2
v 7.45058e-08 2.5 0.2
v 0.1 2.2 0.2
v 0.1 2.3 0.2
v 0.1 2.4 0.2
v 0.1 2.5 0.2
v 0.2 2.2 0.2
v 0.2 2.3 0.2
v 0.2 2.4 0.2
v 0.2 2.5 0.2
v 0.2 2.7 0.2
v 0.1 2.7 -5.96046e-08
v 0.1 2.9 -5.96046e-08
v 0.2 2.7 -5.96046e-08
v 0.2 2.9 -5.96046e-08
v -0.0999999 2.2 -0.1
v -0.0999999 2.7 -0.1
v 0.1 2.7 -0.1
v 0.1 2.9 -0.1
v 0.2 2.2 -0.1
v 0.2 2.7 -0.1
v 0.2 2.9 -0.1
v -0.0999999 2.2 0.2
v 7.45058e-08 2.2 0.2
v 0.1 2.2 0.2
v 0.2 2.2 0.2
v -0.0999999 2.2 0.0999999
v 7.45058e-08 2.2 0.0999999
v 0.1 2.2 0.0999999
v 0.2 2.2 0.0999999
v -0.0999999 2.2 -0.1
v 0.2 2.2 -0.1
v -0.0999999 2.7 0.2
v 0.2 2.7 0.2
v -0.0999999 2.7 0.0999999
v 0.2 2.7 0.0999999
v 0.1 2.7 -5.96046e-08
v 0.2 2.7 -5.96046e-08
v -0.0999999 2.7 -0.1
v 0.1 2.7 -0.1
v 0.1 2.9 -5.96046e-08
v 0.2 2.9 -5.96046e-08
v 0.1 2.9 -0.1
v 0.2 2.9 -0.1

# faces
f 4/3/1 2/3/1 1/3/1
f 5/2/1 3/2/1 2/2/1
f 5/3/1 2/3/1 4/3/1
f 6/2/1 5/2/1 4/2/1
f 7/2/1 3/2/1 5/2/1
f 7/2/1 5/2/1 6/2/1
f 8/3/1 7/3/1 6/3/1
f 9/2/1 3/2/1 7/2/1
f 9/3/1 7/3/1 8/3/1
f 10/1/1 9/1/1 8/1/1
f 11/2/1 3/2/1 9/2/1
f 11/1/1 9/1/1 10/1/1
f 12/2/1 3/2/1 11/2/1
f 15/4/1 14/4/1 13/4/1
f 16/4/1 14/4/1 15/4/1
f 17/3/2 18/3/2 20/3/2
f 18/2/2 19/2/2 21/2/2
f 20/3/2 18/3/2 21/3/2
f 20/2/2 21/2/2 22/2/2
f 21/2/2 19/2/2 23/2/2
f 22/2/2 21/2/2 23/2/2
f 22/3/2 23/3/2 24/3/2
f 23/2/2 19/2/2 25/2/2
f 24/3/2 23/3/2 25/3/2
f 24/1/2 25/1/2 26/1/2
f 25/2/2 19/2/2 27/2/2
f 26/1/2 25/1/2 27/1/2
f 27/2/2 19/2/2 28/2/2
f 28/2/2 19/2/2 29/2/2
f 28/4/2 29/4/2 30/4/2
f 30/4/2 29/4/2 31/4/2
f 37/3/3 33/3/3 32/3/3
f 38/2/3 34/2/3 33/2/3
f 38/3/3 33/3/3 37/3/3
f 39/3/3 35/3/3 34/3/3
f 39/2/3 34/2/3 38/2/3
f 40/1/3 36/1/3 35/1/3
f 40/3/3 35/3/3 39/3/3
f 41/2/3 38/2/3 37/2/3
f 42/3/3 39/3/3 38/3/3
f 42/2/3 38/2/3 41/2/3
f 43/2/3 40/2/3 39/2/3
f 43/3/3 39/3/3 42/3/3
f 44/1/3 36/1/3 40/1/3
f 44/2/3 40/2/3 43/2/3
f 45/3/3 42/3/3 41/3/3
f 46/2/3 43/2/3 42/2/3
f 46/3/3 42/3/3 45/3/3
f 47/3/3 44/3/3 43/3/3
f 47/2/3 43/2/3 46/2/3
f 48/1/3 36/1/3 44/1/3
f 48/3/3 44/3/3 47/3/3
f 49/1/3 36/1/3 48/1/3
f 52/4/3 51/4/3 50/4/3
f 53/4/3 51/4/3 52/4/3
f 54/2/4 55/2/4 56/2/4
f 54/2/4 56/2/4 58/2/4
f 56/4/4 57/4/4 59/4/4
f 58/2/4 56/2/4 59/2/4
f 59/4/4 57/4/4 60/4/4
f 65/3/5 62/3/5 61/3/5
f 66/2/5 63/2/5 62/2/5
f 66/3/5 62/3/5 65/3/5
f 67/3/5 64/3/5 63/3/5
f 67/2/5 63/2/5 66/2/5
f 68/3/5 64/3/5 67/3/5
f 69/2/5 66/2/5 65/2/5
f 69/2/5 67/2/5 66/2/5
f 69/2/5 68/2/5 67/2/5
f 70/2/5 68/2/5 69/2/5
f 71/1/6 72/1/6 73/1/6
f 73/1/6 72/1/6 74/1/6
f 73/2/6 74/2/6 75/2/6
f 75/2/6 74/2/6 76/2/6
f 73/2/6 75/2/6 77/2/6
f 77/2/6 75/2/6 78/2/6
f 79/4/6 80/4/6 81/4/6
f 81/4/6 80/4/6 82/4/6
